<?xml version="1.0" encoding="utf-8"?>
<!-- Generator: Adobe Illustrator 26.0.1, SVG Export Plug-In . SVG Version: 6.00 Build 0)  -->
<svg version="1.1" id="Ebene_1" xmlns="http://www.w3.org/2000/svg" xmlns:xlink="http://www.w3.org/1999/xlink" x="0px" y="0px"
	 viewBox="0 0 561 600" enable-background="new 0 0 561 600" xml:space="preserve">
<path fill="#353949" d="M395.9,203.8c21.2,0,38.5-17.2,38.5-38.5s-17.2-38.5-38.5-38.5l-128.1,0c-15.7,0-29.8-9.6-35.7-24.1L211,50
	h184.9c63.7,0,115.4,51.7,115.4,115.4c0,63.7-51.7,115.4-115.4,115.4l61.7,153.8h-92.5l-51.9-129.7c-5.8-14.6-20-24.2-35.7-24.2
	l-112.4,0c-21.2,0-38.5,17.2-38.5,38.5c0,21.2,17.2,38.5,38.5,38.5h71.5c7.9,0,14.9,4.8,17.8,12.1l26,64.8H165.1
	c-63.7,0-115.4-51.7-115.4-115.4c0-63.7,51.7-115.4,115.4-115.4L395.9,203.8z M95.4,549.1h-7.2c-1.9,0-3.6-1.2-4.2-3l-1-2.8H69.6
	l-1,2.8c-0.6,1.8-2.3,3-4.2,3h-7l14-35.7H81L95.4,549.1z M80.2,535.6l-3.9-11.1l-3.9,11.1H80.2z M159.4,513.4h-10v31.2
	c0,2.5,2,4.5,4.5,4.5h5.5V513.4z M184.5,513.4h-10v31.2c0,2.5,2,4.5,4.5,4.5h19.8v-9h-14.3V513.4z M235.8,513.4h-24.3v31.2
	c0,2.5,2,4.5,4.5,4.5h19.8v-9h-14.5v-4.8h11.1v-8.1h-11.1v-5.3h14.5V513.4z M279.1,513.4c7.7,0,13.3,5.2,13.3,12.6
	c0,4.4-2.1,8-5.7,10.1l7.1,13h-8.3c-1.7,0-3.2-0.9-3.9-2.4l-4.5-8.5h-4.9v6.5c0,2.5-2,4.5-4.5,4.5h-5.4v-35.7H279.1 M277.8,529.9
	c2.8,0,4.5-1.7,4.5-4c0-2.3-1.6-4-4.5-4h-5.7v8H277.8z M320.3,512.5c11.3,0,19.3,7.8,19.3,18.7c0,10.9-8,18.7-19.3,18.7
	c-11.3,0-19.4-7.8-19.4-18.7C300.9,520.3,309,512.5,320.3,512.5 M320.3,540.9c5.4,0,9.2-4,9.2-9.6c0-5.6-3.9-9.6-9.2-9.6
	c-5.4,0-9.3,4.1-9.3,9.6C311,536.8,314.9,540.9,320.3,540.9 M409.1,512.5c11.3,0,19.3,7.8,19.3,18.7c0,10.9-8,18.7-19.3,18.7
	c-11.3,0-19.4-7.8-19.4-18.7C389.8,520.3,397.9,512.5,409.1,512.5 M409.1,540.9c5.4,0,9.2-4,9.2-9.6c0-5.6-3.9-9.6-9.2-9.6
	c-5.4,0-9.3,4.1-9.3,9.6S403.8,540.9,409.1,540.9L409.1,540.9 M368.4,513.4c6.3,0,10.9,3.9,10.9,9.1c0,3.2-1.8,6.1-4.5,7.7
	c3.4,1.6,5.5,4.8,5.5,8.7c0,5.8-5,10.2-11.6,10.2h-13.9c-2.5,0-4.5-2-4.5-4.5v-31.2H368.4 M366.6,527.3c2.1,0,3.3-1.3,3.3-3.1
	c0-1.9-1.3-3.1-3.3-3.1h-6.9v6.2H366.6z M367,541c2.1,0,3.5-1.3,3.5-3.3c0-1.9-1.4-3.2-3.5-3.2h-7.3v6.5H367z M465.5,513.4h-28.9
	v4.4c0,2.5,2,4.5,4.5,4.5h5.1v22.4c0,2.5,2,4.5,4.5,4.5h5.4v-26.8h9.5V513.4z M119.9,512.5c-10.7,0-19.5,8.4-19.5,18.7
	c0,10.4,8.7,18.7,19.5,18.7c6,0,11-2.1,15.2-6.3c0.5-0.5,0.8-1.2,0.8-1.9l0-12.6h-15.2v6.1h6.3v3.2c-1.8,1.5-4.1,2.4-6.6,2.4
	c-5.5,0-10-4.3-10-9.6s4.5-9.6,10-9.6c2,0,3.8,0.5,5.3,1.5c0.7,0.4,1.5,0.6,2.3,0.6c1,0,2.1-0.4,2.9-1.1l4-3.4
	C131.3,515.2,125.9,512.5,119.9,512.5 M489,512.5c-8.4,0-13.6,4-13.6,11.1c0,8.1,6.6,9.7,11.7,11c3.4,0.8,6.2,1.5,6.2,3.7
	c0,1.7-1.7,2.4-3.4,2.4c-2.1,0-3.7-0.7-4.9-1.4c-0.7-0.4-1.5-0.6-2.3-0.6c-0.8,0-1.5,0.2-2.2,0.6l-5.6,3.2c2.7,5,8.1,7.4,14.4,7.4
	c8.3,0,14.3-4,14.3-11.8c0-8.1-6.9-9.9-12.1-11.3c-3.4-0.8-6-1.5-6-3.5c0-1.7,1.7-2.4,3.4-2.4c1.6,0,3,0.6,4.1,1.4
	c0.8,0.6,1.7,0.8,2.6,0.8c0.8,0,1.5-0.2,2.2-0.6l5-2.9c-1.6-2.2-3.7-4.1-6.2-5.4C494.7,513.3,492,512.5,489,512.5"/>
</svg>
